{"title":"2 Harihar Nagar (2009) Malayalam BlurayRip 1080p x264 5.1-Splash","uid":9140636,"size":5342284777,"categoryP":"video","categoryS":"hd___movies","magnet":"?xt=urn:btih:0c833e33ceff4413b6e2861c5f903e92c51ec1f4&amp;dn=2+Harihar+Nagar+%282009%29+Malayalam+BlurayRip+1080p+x264+5.1-Splash&amp;tr=udp%3A%2F%2Ftracker.openbittorrent.com%3A80&amp;tr=udp%3A%2F%2Fopen.demonii.com%3A1337&amp;tr=udp%3A%2F%2Ftracker.coppersurfer.tk%3A6969&amp;tr=udp%3A%2F%2Fexodus.desync.com%3A6969","seeders":1,"leechers":0,"uploader":"Prabhu99","files":3,"time":1383507063,"description":"2 Harihar Nagar Malayalam 1080p BRRip-x264 5.1-Splash\n &lt;a href=&quot;\nhttp://i.imgur.com/Ys0KaXp.jpg&quot; rel=&quot;nofollow&quot; target=&quot;_NEW&quot;&gt;\nhttp://i.imgur.com/Ys0KaXp.jpg&lt;/a&gt;\n\nDirected by Lal \nProduced by P. N. Venugopal \nWritten by Lal \nStarring\nMukesh\nJagadish\nSiddique\nAshokan\nLakshmi Rai \nMusic by Alex Paul \n\nSynopsis\n2 Harihar Nagar is a 2009 Malayalam film written and directed by Lal and produced by P N Venugopal. It is a sequel to In Harihar Nagar (except the first scene were the four meet each other) and a prequel to In Ghost House Inn. The films chronicle the story of four very close friends Mahadevan (Mukesh), Govindan Kutty (Siddique), Appukuttan (Jagadish), and Thomas Kutty (Ashokan).\n\nMedia Info\n\nFormat : Matroska\nFormat version : Version 2\nFile size : 4.96 GiB\nDuration : 2h 21mn\nOverall bit rate mode : Variable\nOverall bit rate : 5 035 Kbps\nVideo\nID : 1\nFormat : AVC\nFormat/Info : Advanced Video Codec\nFormat profile : &lt;a class=&quot;__cf_email__&quot; href=&quot;/cdn-cgi/l/email-protection&quot; data-cfemail=&quot;327a5b555a727e061c03&quot;&gt;[email&amp;#160;protected]&lt;/a&gt;&lt;script cf-hash='f9e31' type=&quot;text/javascript&quot;&gt;\n/* &lt;![CDATA[ */!function(){try{var t=&quot;currentScript&quot;in document?document.currentScript:function(){for(var t=document.getElementsByTagName(&quot;script&quot;),e=t.length;e--;)if(t[e].getAttribute(&quot;cf-hash&quot;))return t[e]}();if(t&amp;&amp;t.previousSibling){var e,r,n,i,c=t.previousSibling,a=c.getAttribute(&quot;data-cfemail&quot;);if(a){for(e=&quot;&quot;,r=parseInt(a.substr(0,2),16),n=2;a.length-n;n+=2)i=parseInt(a.substr(n,2),16)^r,e+=String.fromCharCode(i);e=document.createTextNode(e),c.parentNode.replaceChild(e,c)}}}catch(u){}}();/* ]]&gt; */&lt;/script&gt;\nFormat settings, CABAC : Yes\nFormat settings, ReFrames : 2 frames\nCodec ID : V_MPEG4/ISO/AVC\nDuration : 2h 21mn\nBit rate mode : Variable\nBit rate : 3 591 Kbps\nMaximum bit rate : 5 682 Kbps\nWidth : 1 920 pixels\nHeight : 822 pixels\nDisplay aspect ratio : 2.35:1\nFrame rate mode : Constant\nFrame rate : 24.000 fps\nColor space : YUV\nChroma subsampling : 4:2:0\nBit depth : 8 bits\nScan type : Progressive\nBits/(Pixel*Frame) : 0.095\nAudio #1\nID : 2\nFormat : AC-3\nFormat/Info : Audio Coding 3\nMode extension : CM (complete main)\nFormat settings, Endianness : Big\nCodec ID : A_AC3\nDuration : 2h 21mn\nBit rate mode : Constant\nBit rate : 448 Kbps\nChannel(s) : 6 channels\nChannel positions : Front: L C R, Side: L R, LFE\nSampling rate : 48.0 KHz\nBit depth : 16 bits\nCompression mode : Lossy\nStream size : 452 MiB (9%)\nLanguage : Malayalam\nDefault : Yes\nForced : No\n\nAudio #2\nID : 3\nFormat : AC-3\nFormat/Info : Audio Coding 3\nMode extension : CM (complete main)\nFormat settings, Endianness : Big\nCodec ID : A_AC3\nDuration : 2h 21mn\nBit rate mode : Constant\nBit rate : 448 Kbps\nChannel(s) : 6 channels\nChannel positions : Front: L C R, Side: L R, LFE\nSampling rate : 48.0 KHz\nBit depth : 16 bits\nCompression mode : Lossy\nStream size : 452 MiB (9%)\nLanguage : Malayalam\nDefault : No\nForced : No\n\nAudio #3\nID : 4\nFormat : AC-3\nFormat/Info : Audio Coding 3\nMode extension : CM (complete main)\nFormat settings, Endianness : Big\nCodec ID : A_AC3\nDuration : 2h 21mn\nBit rate mode : Constant\nBit rate : 448 Kbps\nChannel(s) : 2 channels\nChannel positions : Front: L R\nSampling rate : 48.0 KHz\nBit depth : 16 bits\nCompression mode : Lossy\nStream size : 452 MiB (9%)\nLanguage : Malayalam\nDefault : No\nForced : No\n\n\n\n\n\nSCREENSHOT\n\n\n &lt;a href=&quot;\nhttp://i.imgur.com/GAcOW4z.jpg&quot; rel=&quot;nofollow&quot; target=&quot;_NEW&quot;&gt;\nhttp://i.imgur.com/GAcOW4z.jpg&lt;/a&gt; &lt;a href=&quot;\nhttp://i.imgur.com/WUxRogZ.jpg&quot; rel=&quot;nofollow&quot; target=&quot;_NEW&quot;&gt;\nhttp://i.imgur.com/WUxRogZ.jpg&lt;/a&gt; &lt;a href=&quot;\nhttp://i.imgur.com/XMXrA0k.jpg&quot; rel=&quot;nofollow&quot; target=&quot;_NEW&quot;&gt;\nhttp://i.imgur.com/XMXrA0k.jpg&lt;/a&gt; &lt;a href=&quot;\nhttp://i.imgur.com/jsnaFNd.jpg&quot; rel=&quot;nofollow&quot; target=&quot;_NEW&quot;&gt;\nhttp://i.imgur.com/jsnaFNd.jpg&lt;/a&gt;\n\n\n\n","torrent":{"xt":"urn:btih:0c833e33ceff4413b6e2861c5f903e92c51ec1f4","amp;dn":"2+Harihar+Nagar+%282009%29+Malayalam+BlurayRip+1080p+x264+5.1-Splash","amp;tr":["udp%3A%2F%2Ftracker.openbittorrent.com%3A80","udp%3A%2F%2Fopen.demonii.com%3A1337","udp%3A%2F%2Ftracker.coppersurfer.tk%3A6969","udp%3A%2F%2Fexodus.desync.com%3A6969"],"infoHash":"0c833e33ceff4413b6e2861c5f903e92c51ec1f4","infoHashBuffer":{"type":"Buffer","data":[12,131,62,51,206,255,68,19,182,226,134,28,95,144,62,146,197,30,193,244]},"announce":[],"urlList":[]}}